<?xml version="1.0" encoding="UTF-8"?>
<!DOCTYPE svg PUBLIC "-//W3C//DTD SVG 1.1//EN" "http://www.w3.org/Graphics/SVG/1.1/DTD/svg11.dtd">
<svg xmlns="http://www.w3.org/2000/svg" version="1.1" width="1024px" height="1024px" style="shape-rendering:geometricPrecision; text-rendering:geometricPrecision; image-rendering:optimizeQuality; fill-rule:evenodd; clip-rule:evenodd" xmlns:xlink="http://www.w3.org/1999/xlink">
<g><path style="opacity:1" fill="#16171b" d="M -0.5,-0.5 C 340.833,-0.5 682.167,-0.5 1023.5,-0.5C 1023.5,340.833 1023.5,682.167 1023.5,1023.5C 682.167,1023.5 340.833,1023.5 -0.5,1023.5C -0.5,682.167 -0.5,340.833 -0.5,-0.5 Z"/></g>
<g><path style="opacity:1" fill="#57d9ab" d="M 672.5,279.5 C 671.566,278.432 671.232,277.099 671.5,275.5C 671.333,264.495 671.5,253.495 672,242.5C 674.583,241.126 677.083,239.626 679.5,238C 677.874,238.195 676.207,238.195 674.5,238C 674.833,237.667 675.167,237.333 675.5,237C 673.215,235.046 671.048,235.213 669,237.5C 668.667,237.167 668.333,236.833 668,236.5C 667.021,238.32 665.521,239.487 663.5,240C 665.037,241.11 665.703,242.61 665.5,244.5C 663.5,244.167 661.5,243.833 659.5,243.5C 659.5,249.833 659.5,256.167 659.5,262.5C 659.815,266.371 659.482,270.038 658.5,273.5C 658.666,263.494 658.5,253.494 658,243.5C 640.642,234.096 636.642,220.763 646,203.5C 655.758,193.639 666.925,191.806 679.5,198C 692.925,210.427 693.925,223.761 682.5,238C 679.415,239.96 676.248,241.793 673,243.5C 672.5,255.495 672.333,267.495 672.5,279.5 Z"/></g>
<g><path style="opacity:1" fill="#16181a" d="M 661.5,209.5 C 674.25,209.088 678.083,214.754 673,226.5C 667.019,230.947 661.686,230.281 657,224.5C 654.064,218.058 655.564,213.058 661.5,209.5 Z"/></g>
<g><path style="opacity:1" fill="#3a91b4" d="M 503.5,281.5 C 505.877,282.887 508.543,283.721 511.5,284C 509.002,285.086 507.002,286.753 505.5,289C 508.216,290.001 508.882,291.668 507.5,294C 508.26,296.428 509.76,298.261 512,299.5C 512.617,300.449 512.451,301.282 511.5,302C 517.016,302.173 522.349,302.673 527.5,303.5C 513.833,303.5 500.167,303.5 486.5,303.5C 482.167,302.833 477.833,302.167 473.5,301.5C 476.187,301.664 478.854,301.497 481.5,301C 483.042,299.259 483.876,297.426 484,295.5C 484.29,297.044 484.956,298.377 486,299.5C 486.317,297.699 486.984,297.366 488,298.5C 488.75,297.874 489.584,297.374 490.5,297C 486.822,295.478 483.322,294.311 480,293.5C 479.833,292.833 479.667,292.167 479.5,291.5C 480.787,289.84 482.12,288.174 483.5,286.5C 482.273,285.41 481.44,284.076 481,282.5C 480.667,272.833 480.333,263.167 480,253.5C 479.439,254.022 478.772,254.355 478,254.5C 474.789,253.328 474.289,251.828 476.5,250C 474.621,249.04 472.621,248.54 470.5,248.5C 470.846,247.304 471.346,247.304 472,248.5C 472.49,247.207 472.657,245.873 472.5,244.5C 471.448,244.649 470.448,244.483 469.5,244C 471.398,243.1 473.064,241.934 474.5,240.5C 473.369,239.396 472.535,239.729 472,241.5C 471.727,239.671 470.893,238.171 469.5,237C 471.158,236.275 471.658,235.108 471,233.5C 470.586,233.957 470.086,234.291 469.5,234.5C 468.253,232.994 468.253,231.494 469.5,230C 466.869,228.309 467.203,227.142 470.5,226.5C 468.343,225.21 466.01,224.376 463.5,224C 467.149,220.886 466.483,218.552 461.5,217C 463.557,216.695 465.557,216.695 467.5,217C 465.47,215.104 463.803,212.937 462.5,210.5C 461.06,211.952 459.394,212.952 457.5,213.5C 459.947,210.101 463.28,207.935 467.5,207C 481.089,204.71 490.589,209.877 496,222.5C 498.522,235.786 493.856,245.452 482,251.5C 481.5,261.494 481.334,271.494 481.5,281.5C 488.833,281.5 496.167,281.5 503.5,281.5 Z"/></g>
<g><path style="opacity:1" fill="#4fcea2" d="M 735.5,289.5 C 735.64,287.876 734.973,286.71 733.5,286C 735.976,283.7 735.476,281.867 732,280.5C 730.278,280.611 730.112,281.111 731.5,282C 729.591,282.448 728.424,281.615 728,279.5C 724.902,283.107 721.402,286.107 717.5,288.5C 721.296,284.202 725.296,280.036 729.5,276C 726.261,272.111 724.927,267.611 725.5,262.5C 727.49,244.686 737.49,236.52 755.5,238C 774.091,245.356 779.258,258.19 771,276.5C 763.05,286.864 752.883,289.864 740.5,285.5C 738.814,286.857 737.148,288.19 735.5,289.5 Z"/></g>
<g><path style="opacity:1" fill="#16181a" d="M 746.5,252.5 C 756.442,251.277 760.942,255.61 760,265.5C 757.27,272.053 752.437,274.22 745.5,272C 740.728,268.301 739.228,263.467 741,257.5C 742.73,255.598 744.563,253.931 746.5,252.5 Z"/></g>
<g><path style="opacity:1" fill="#4cc7a0" d="M 671.5,275.5 C 670.092,280.869 667.092,281.869 662.5,278.5C 664.898,276.379 665.065,274.045 663,271.5C 662.667,272.5 662.333,273.5 662,274.5C 661.667,274.167 661.333,273.833 661,273.5C 660.823,269.644 660.323,265.977 659.5,262.5C 659.5,256.167 659.5,249.833 659.5,243.5C 661.5,243.833 663.5,244.167 665.5,244.5C 665.703,242.61 665.037,241.11 663.5,240C 665.521,239.487 667.021,238.32 668,236.5C 668.333,236.833 668.667,237.167 669,237.5C 671.048,235.213 673.215,235.046 675.5,237C 675.167,237.333 674.833,237.667 674.5,238C 676.207,238.195 677.874,238.195 679.5,238C 677.083,239.626 674.583,241.126 672,242.5C 671.5,253.495 671.333,264.495 671.5,275.5 Z"/></g>
<g><path style="opacity:1" fill="#3788b1" d="M 473.5,301.5 C 466.716,301.92 460.05,301.42 453.5,300C 452.833,298.667 452.167,297.333 451.5,296C 453.108,295.342 454.275,295.842 455,297.5C 456.682,296.135 456.849,294.635 455.5,293C 457.991,292.374 457.991,291.541 455.5,290.5C 456.989,290.467 458.322,289.967 459.5,289C 458.953,288.075 458.287,287.242 457.5,286.5C 457.511,287.441 457.011,288.108 456,288.5C 454.101,288.618 452.267,288.118 450.5,287C 451.646,286.355 452.646,285.522 453.5,284.5C 454.609,285.59 455.609,285.59 456.5,284.5C 449.197,283.503 441.863,283.169 434.5,283.5C 436.5,282.833 438.5,282.167 440.5,281.5C 448.5,281.5 456.5,281.5 464.5,281.5C 464.832,271.145 464.499,260.812 463.5,250.5C 451.38,242.693 447.88,232.026 453,218.5C 454.049,216.382 455.549,214.716 457.5,213.5C 459.394,212.952 461.06,211.952 462.5,210.5C 463.803,212.937 465.47,215.104 467.5,217C 465.557,216.695 463.557,216.695 461.5,217C 466.483,218.552 467.149,220.886 463.5,224C 466.01,224.376 468.343,225.21 470.5,226.5C 467.203,227.142 466.869,228.309 469.5,230C 468.253,231.494 468.253,232.994 469.5,234.5C 470.086,234.291 470.586,233.957 471,233.5C 471.658,235.108 471.158,236.275 469.5,237C 470.893,238.171 471.727,239.671 472,241.5C 472.535,239.729 473.369,239.396 474.5,240.5C 473.064,241.934 471.398,243.1 469.5,244C 470.448,244.483 471.448,244.649 472.5,244.5C 472.657,245.873 472.49,247.207 472,248.5C 471.346,247.304 470.846,247.304 470.5,248.5C 472.621,248.54 474.621,249.04 476.5,250C 474.289,251.828 474.789,253.328 478,254.5C 478.772,254.355 479.439,254.022 480,253.5C 480.333,263.167 480.667,272.833 481,282.5C 481.44,284.076 482.273,285.41 483.5,286.5C 482.12,288.174 480.787,289.84 479.5,291.5C 479.667,292.167 479.833,292.833 480,293.5C 483.322,294.311 486.822,295.478 490.5,297C 489.584,297.374 488.75,297.874 488,298.5C 486.984,297.366 486.317,297.699 486,299.5C 484.956,298.377 484.29,297.044 484,295.5C 483.876,297.426 483.042,299.259 481.5,301C 478.854,301.497 476.187,301.664 473.5,301.5 Z"/></g>
<g><path style="opacity:1" fill="#347db5" d="M 440.5,281.5 C 438.5,282.167 436.5,282.833 434.5,283.5C 425.494,283.334 416.494,283.5 407.5,284C 406.167,284.667 406.167,285.333 407.5,286C 406.5,286.333 405.5,286.667 404.5,287C 407.469,287.299 408.969,288.799 409,291.5C 408.282,290.549 407.449,290.383 406.5,291C 408.049,292.214 409.215,293.714 410,295.5C 410.579,291.614 411.412,291.614 412.5,295.5C 411.855,296.732 411.689,298.065 412,299.5C 411.25,300.126 410.416,300.626 409.5,301C 419.717,301.08 429.717,301.913 439.5,303.5C 424.5,303.5 409.5,303.5 394.5,303.5C 393.761,303.631 393.094,303.464 392.5,303C 393.5,302.667 394.5,302.333 395.5,302C 393.559,301.257 391.726,301.424 390,302.5C 389.308,301.975 388.808,301.308 388.5,300.5C 389.698,300.06 390.865,299.727 392,299.5C 392.798,297.741 392.631,296.074 391.5,294.5C 391.357,297.545 390.024,297.878 387.5,295.5C 385.922,296.64 384.256,297.14 382.5,297C 383.458,295.853 383.125,294.853 381.5,294C 382.167,293.667 382.833,293.333 383.5,293C 378.767,292.392 377.767,290.392 380.5,287C 378.122,286.026 378.456,285.359 381.5,285C 380.906,284.536 380.239,284.369 379.5,284.5C 382.577,283.144 385.91,282.311 389.5,282C 406.497,281.5 423.497,281.333 440.5,281.5 Z"/></g>
<g><path style="opacity:1" fill="#357fb1" d="M 434.5,283.5 C 441.863,283.169 449.197,283.503 456.5,284.5C 455.609,285.59 454.609,285.59 453.5,284.5C 452.646,285.522 451.646,286.355 450.5,287C 452.267,288.118 454.101,288.618 456,288.5C 457.011,288.108 457.511,287.441 457.5,286.5C 458.287,287.242 458.953,288.075 459.5,289C 458.322,289.967 456.989,290.467 455.5,290.5C 457.991,291.541 457.991,292.374 455.5,293C 456.849,294.635 456.682,296.135 455,297.5C 454.275,295.842 453.108,295.342 451.5,296C 452.167,297.333 452.833,298.667 453.5,300C 460.05,301.42 466.716,301.92 473.5,301.5C 477.833,302.167 482.167,302.833 486.5,303.5C 470.833,303.5 455.167,303.5 439.5,303.5C 429.717,301.913 419.717,301.08 409.5,301C 410.416,300.626 411.25,300.126 412,299.5C 411.689,298.065 411.855,296.732 412.5,295.5C 411.412,291.614 410.579,291.614 410,295.5C 409.215,293.714 408.049,292.214 406.5,291C 407.449,290.383 408.282,290.549 409,291.5C 408.969,288.799 407.469,287.299 404.5,287C 405.5,286.667 406.5,286.333 407.5,286C 406.167,285.333 406.167,284.667 407.5,284C 416.494,283.5 425.494,283.334 434.5,283.5 Z"/></g>
<g><path style="opacity:1" fill="#3c98ab" d="M 503.5,281.5 C 521.008,281.17 538.341,281.503 555.5,282.5C 554.127,282.343 552.793,282.51 551.5,283C 551.833,283.333 552.167,283.667 552.5,284C 549.141,287.464 549.141,291.13 552.5,295C 551.887,297.147 551.221,299.314 550.5,301.5C 548.3,300.544 547.967,301.21 549.5,303.5C 542.167,303.5 534.833,303.5 527.5,303.5C 522.349,302.673 517.016,302.173 511.5,302C 512.451,301.282 512.617,300.449 512,299.5C 509.76,298.261 508.26,296.428 507.5,294C 508.882,291.668 508.216,290.001 505.5,289C 507.002,286.753 509.002,285.086 511.5,284C 508.543,283.721 505.877,282.887 503.5,281.5 Z"/></g>
<g><path style="opacity:1" fill="#3375b1" d="M 379.5,284.5 C 380.239,284.369 380.906,284.536 381.5,285C 378.456,285.359 378.122,286.026 380.5,287C 377.767,290.392 378.767,292.392 383.5,293C 382.833,293.333 382.167,293.667 381.5,294C 383.125,294.853 383.458,295.853 382.5,297C 384.256,297.14 385.922,296.64 387.5,295.5C 390.024,297.878 391.357,297.545 391.5,294.5C 392.631,296.074 392.798,297.741 392,299.5C 390.865,299.727 389.698,300.06 388.5,300.5C 388.808,301.308 389.308,301.975 390,302.5C 391.726,301.424 393.559,301.257 395.5,302C 394.5,302.333 393.5,302.667 392.5,303C 393.094,303.464 393.761,303.631 394.5,303.5C 381.866,305.647 370.199,310.314 359.5,317.5C 359.119,316.069 358.119,315.236 356.5,315C 359.078,312.843 359.078,311.677 356.5,311.5C 357.326,310.549 357.492,309.549 357,308.5C 355.867,310.211 354.367,310.711 352.5,310C 351.576,309.15 351.576,308.15 352.5,307C 351.978,306.05 351.311,305.216 350.5,304.5C 351.629,302.471 351.129,302.137 349,303.5C 348.626,302.584 348.126,301.75 347.5,301C 350.355,298.969 353.022,296.803 355.5,294.5C 362.734,289.556 370.734,286.223 379.5,284.5 Z"/></g>
<g><path style="opacity:1" fill="#47bb9b" d="M 735.5,289.5 C 726.194,299.473 716.527,309.14 706.5,318.5C 705.172,317.09 705.505,315.924 707.5,315C 705.972,312.76 703.972,311.093 701.5,310C 703.155,308.556 703.822,306.722 703.5,304.5C 705.58,302.427 707.246,300.093 708.5,297.5C 711.167,294.167 714.167,291.167 717.5,288.5C 721.402,286.107 724.902,283.107 728,279.5C 728.424,281.615 729.591,282.448 731.5,282C 730.112,281.111 730.278,280.611 732,280.5C 735.476,281.867 735.976,283.7 733.5,286C 734.973,286.71 735.64,287.876 735.5,289.5 Z"/></g>
<g><path style="opacity:1" fill="#47bca1" d="M 659.5,262.5 C 660.323,265.977 660.823,269.644 661,273.5C 661.333,273.833 661.667,274.167 662,274.5C 662.333,273.5 662.667,272.5 663,271.5C 665.065,274.045 664.898,276.379 662.5,278.5C 667.092,281.869 670.092,280.869 671.5,275.5C 671.232,277.099 671.566,278.432 672.5,279.5C 660.395,291.104 648.395,302.937 636.5,315C 630.509,315.499 624.509,315.666 618.5,315.5C 623.316,314.674 628.316,314.174 633.5,314C 629.833,313.667 626.167,313.333 622.5,313C 623.634,311.984 623.301,311.317 621.5,311C 624.887,309.127 628.053,309.627 631,312.5C 633.235,311.761 635.235,311.761 637,312.5C 638.833,310.667 640.667,308.833 642.5,307C 640.92,301.629 638.586,301.462 635.5,306.5C 634.069,306.023 632.736,305.357 631.5,304.5C 632.025,303.808 632.692,303.308 633.5,303C 623.225,303.425 612.892,303.592 602.5,303.5C 601.494,302.604 601.494,301.938 602.5,301.5C 611.839,301.666 621.173,301.5 630.5,301C 639.755,291.576 649.089,282.41 658.5,273.5C 659.482,270.038 659.815,266.371 659.5,262.5 Z"/></g>
<g><path style="opacity:1" fill="#3fa5a2" d="M 555.5,282.5 C 562.17,282.755 568.503,284.088 574.5,286.5C 576.711,288.011 579.377,289.844 582.5,292C 582.108,293.011 581.441,293.511 580.5,293.5C 581.833,294.833 581.833,296.167 580.5,297.5C 580.808,298.308 581.308,298.975 582,299.5C 582.423,298.044 583.256,297.544 584.5,298C 583.939,299.566 584.606,300.899 586.5,302C 584.888,302.72 583.388,302.554 582,301.5C 581.5,302 581,302.5 580.5,303C 582.5,303.667 584.5,304.333 586.5,305C 585.949,306.398 585.616,307.732 585.5,309C 586.5,310 587.5,311 588.5,312C 587.692,312.308 587.025,312.808 586.5,313.5C 587.891,313.109 588.891,313.942 589.5,316C 585.034,314.434 580.7,312.267 576.5,309.5C 575.893,309.624 575.56,309.957 575.5,310.5C 567.266,306.652 558.6,304.318 549.5,303.5C 547.967,301.21 548.3,300.544 550.5,301.5C 551.221,299.314 551.887,297.147 552.5,295C 549.141,291.13 549.141,287.464 552.5,284C 552.167,283.667 551.833,283.333 551.5,283C 552.793,282.51 554.127,282.343 555.5,282.5 Z"/></g>
<g><path style="opacity:1" fill="#326db3" d="M 355.5,294.5 C 353.022,296.803 350.355,298.969 347.5,301C 348.126,301.75 348.626,302.584 349,303.5C 351.129,302.137 351.629,302.471 350.5,304.5C 351.311,305.216 351.978,306.05 352.5,307C 351.576,308.15 351.576,309.15 352.5,310C 354.367,310.711 355.867,310.211 357,308.5C 357.492,309.549 357.326,310.549 356.5,311.5C 359.078,311.677 359.078,312.843 356.5,315C 358.119,315.236 359.119,316.069 359.5,317.5C 348.822,326.51 340.822,337.51 335.5,350.5C 334.226,349.811 334.226,348.977 335.5,348C 333.109,347.309 333.109,346.309 335.5,345C 333.754,344.529 332.087,343.862 330.5,343C 332.112,342.28 333.612,342.446 335,343.5C 334.478,341.951 334.645,340.451 335.5,339C 334.728,337.779 333.728,336.779 332.5,336C 332.833,335.667 333.167,335.333 333.5,335C 331.641,334.316 329.974,333.316 328.5,332C 328.957,331.586 329.291,331.086 329.5,330.5C 328.438,329.23 327.438,328.063 326.5,327C 327.167,326.667 327.833,326.333 328.5,326C 326.574,325.578 325.574,324.411 325.5,322.5C 332.606,310.061 342.606,300.727 355.5,294.5 Z"/></g>
<g><path style="opacity:1" fill="#42af9b" d="M 618.5,315.5 C 621.645,320.444 624.812,325.444 628,330.5C 628.847,332.854 629.68,335.188 630.5,337.5C 643.327,338.66 656.327,338.827 669.5,338C 680.702,326.631 692.035,315.465 703.5,304.5C 703.822,306.722 703.155,308.556 701.5,310C 703.972,311.093 705.972,312.76 707.5,315C 705.505,315.924 705.172,317.09 706.5,318.5C 696.699,327.468 687.366,336.968 678.5,347C 676.33,348.586 673.996,349.92 671.5,351C 659.486,351.167 647.486,351.667 635.5,352.5C 638.206,362.287 639.206,372.287 638.5,382.5C 637.515,378.366 637.182,374.032 637.5,369.5C 636.127,369.657 634.793,369.49 633.5,369C 634.706,367.982 634.373,367.482 632.5,367.5C 630.72,368.915 629.054,368.748 627.5,367C 628.056,366.617 628.389,366.117 628.5,365.5C 631.598,365.587 631.932,365.087 629.5,364C 630.641,363.259 630.641,362.425 629.5,361.5C 631.856,360.346 632.023,359.013 630,357.5C 629.085,358.328 628.419,359.328 628,360.5C 624.24,360.061 620.74,358.894 617.5,357C 620.051,355.452 622.718,355.452 625.5,357C 624.304,357.654 624.304,358.154 625.5,358.5C 629.386,355.907 628.719,354.907 623.5,355.5C 623.725,351.944 622.892,351.61 621,354.5C 620.5,354.333 620,354.167 619.5,354C 622.484,352.732 623.484,350.732 622.5,348C 623.308,347.692 623.975,347.192 624.5,346.5C 624.154,345.304 623.654,345.304 623,346.5C 622.691,345.234 622.191,344.067 621.5,343C 621.833,342.667 622.167,342.333 622.5,342C 621.216,341.316 620.049,341.483 619,342.5C 618.085,341.672 617.419,340.672 617,339.5C 616.667,339.833 616.333,340.167 616,340.5C 615.51,339.207 615.343,337.873 615.5,336.5C 609.59,338.605 608.59,337.605 612.5,333.5C 612.291,332.914 611.957,332.414 611.5,332C 615.852,331.581 616.185,330.914 612.5,330C 615.708,329.113 615.708,327.447 612.5,325C 615.464,324.16 615.797,323.16 613.5,322C 613.833,321.667 614.167,321.333 614.5,321C 611.686,318.359 611.353,315.692 613.5,313C 611.939,312.682 610.772,311.849 610,310.5C 608.667,311.833 607.333,311.833 606,310.5C 605.517,311.448 605.351,312.448 605.5,313.5C 606.552,313.351 607.552,313.517 608.5,314C 607.056,314.781 605.723,314.614 604.5,313.5C 603.359,312.575 603.359,311.741 604.5,311C 602.276,308.851 600.776,309.351 600,312.5C 599.833,312 599.667,311.5 599.5,311C 599.722,307.778 600.722,305.278 602.5,303.5C 612.892,303.592 623.225,303.425 633.5,303C 632.692,303.308 632.025,303.808 631.5,304.5C 632.736,305.357 634.069,306.023 635.5,306.5C 638.586,301.462 640.92,301.629 642.5,307C 640.667,308.833 638.833,310.667 637,312.5C 635.235,311.761 633.235,311.761 631,312.5C 628.053,309.627 624.887,309.127 621.5,311C 623.301,311.317 623.634,311.984 622.5,313C 626.167,313.333 629.833,313.667 633.5,314C 628.316,314.174 623.316,314.674 618.5,315.5 Z"/></g>
<g><path style="opacity:1" fill="#4dd5b8" d="M 708.5,297.5 C 707.246,300.093 705.58,302.427 703.5,304.5C 692.035,315.465 680.702,326.631 669.5,338C 656.327,338.827 643.327,338.66 630.5,337.5C 643.171,337.667 655.838,337.5 668.5,337C 681.701,323.631 695.035,310.465 708.5,297.5 Z"/></g>
<g><path style="opacity:1" fill="#41ad9f" d="M 574.5,286.5 C 585.051,289.439 594.384,294.439 602.5,301.5C 601.494,301.938 601.494,302.604 602.5,303.5C 600.722,305.278 599.722,307.778 599.5,311C 599.667,311.5 599.833,312 600,312.5C 600.776,309.351 602.276,308.851 604.5,311C 603.359,311.741 603.359,312.575 604.5,313.5C 605.723,314.614 607.056,314.781 608.5,314C 607.552,313.517 606.552,313.351 605.5,313.5C 605.351,312.448 605.517,311.448 606,310.5C 607.333,311.833 608.667,311.833 610,310.5C 610.772,311.849 611.939,312.682 613.5,313C 611.353,315.692 611.686,318.359 614.5,321C 614.167,321.333 613.833,321.667 613.5,322C 615.797,323.16 615.464,324.16 612.5,325C 615.708,327.447 615.708,329.113 612.5,330C 616.185,330.914 615.852,331.581 611.5,332C 611.957,332.414 612.291,332.914 612.5,333.5C 608.59,337.605 609.59,338.605 615.5,336.5C 615.343,337.873 615.51,339.207 616,340.5C 616.333,340.167 616.667,339.833 617,339.5C 617.419,340.672 618.085,341.672 619,342.5C 620.049,341.483 621.216,341.316 622.5,342C 622.167,342.333 621.833,342.667 621.5,343C 622.191,344.067 622.691,345.234 623,346.5C 623.654,345.304 624.154,345.304 624.5,346.5C 623.975,347.192 623.308,347.692 622.5,348C 623.484,350.732 622.484,352.732 619.5,354C 620,354.167 620.5,354.333 621,354.5C 622.892,351.61 623.725,351.944 623.5,355.5C 628.719,354.907 629.386,355.907 625.5,358.5C 624.304,358.154 624.304,357.654 625.5,357C 622.718,355.452 620.051,355.452 617.5,357C 620.74,358.894 624.24,360.061 628,360.5C 628.419,359.328 629.085,358.328 630,357.5C 632.023,359.013 631.856,360.346 629.5,361.5C 630.641,362.425 630.641,363.259 629.5,364C 631.932,365.087 631.598,365.587 628.5,365.5C 626.259,364.433 624.426,362.766 623,360.5C 622.044,361.579 621.211,362.745 620.5,364C 619.551,364.617 618.718,364.451 618,363.5C 617.501,368.155 617.334,372.821 617.5,377.5C 617.832,392.246 617.499,406.246 616.5,419.5C 616.667,401.497 616.5,383.497 616,365.5C 611.475,340.486 597.975,322.153 575.5,310.5C 575.56,309.957 575.893,309.624 576.5,309.5C 580.7,312.267 585.034,314.434 589.5,316C 588.891,313.942 587.891,313.109 586.5,313.5C 587.025,312.808 587.692,312.308 588.5,312C 587.5,311 586.5,310 585.5,309C 585.616,307.732 585.949,306.398 586.5,305C 584.5,304.333 582.5,303.667 580.5,303C 581,302.5 581.5,302 582,301.5C 583.388,302.554 584.888,302.72 586.5,302C 584.606,300.899 583.939,299.566 584.5,298C 583.256,297.544 582.423,298.044 582,299.5C 581.308,298.975 580.808,298.308 580.5,297.5C 581.833,296.167 581.833,294.833 580.5,293.5C 581.441,293.511 582.108,293.011 582.5,292C 579.377,289.844 576.711,288.011 574.5,286.5 Z"/></g>
<g><path style="opacity:1" fill="#3061ae" d="M 325.5,322.5 C 325.574,324.411 326.574,325.578 328.5,326C 327.833,326.333 327.167,326.667 326.5,327C 327.438,328.063 328.438,329.23 329.5,330.5C 329.291,331.086 328.957,331.586 328.5,332C 329.974,333.316 331.641,334.316 333.5,335C 333.167,335.333 332.833,335.667 332.5,336C 333.728,336.779 334.728,337.779 335.5,339C 334.645,340.451 334.478,341.951 335,343.5C 333.612,342.446 332.112,342.28 330.5,343C 332.087,343.862 333.754,344.529 335.5,345C 333.109,346.309 333.109,347.309 335.5,348C 334.226,348.977 334.226,349.811 335.5,350.5C 334.79,354.025 333.79,357.358 332.5,360.5C 331.668,360.754 331.001,361.754 330.5,363.5C 329.791,362.596 328.791,362.263 327.5,362.5C 326.629,359.938 326.629,357.272 327.5,354.5C 323.327,354.711 319.661,353.544 316.5,351C 316.833,350.667 317.167,350.333 317.5,350C 316.376,349.751 315.376,349.251 314.5,348.5C 316.031,343.94 317.697,339.44 319.5,335C 319.272,334.601 318.938,334.435 318.5,334.5C 320.043,329.976 322.377,325.976 325.5,322.5 Z"/></g>
<g><path style="opacity:1" fill="#16181b" d="M 394.5,303.5 C 409.5,303.5 424.5,303.5 439.5,303.5C 455.167,303.5 470.833,303.5 486.5,303.5C 500.167,303.5 513.833,303.5 527.5,303.5C 534.833,303.5 542.167,303.5 549.5,303.5C 558.6,304.318 567.266,306.652 575.5,310.5C 597.975,322.153 611.475,340.486 616,365.5C 616.5,383.497 616.667,401.497 616.5,419.5C 615.035,424.353 613.702,429.353 612.5,434.5C 607.913,444.654 601.58,453.654 593.5,461.5C 581.298,470.77 567.631,476.436 552.5,478.5C 518.167,478.5 483.833,478.5 449.5,478.5C 448.209,478.263 447.209,478.596 446.5,479.5C 437.929,485.399 430.262,492.399 423.5,500.5C 415.068,507.429 407.068,514.929 399.5,523C 396.956,525.088 394.623,524.921 392.5,522.5C 392.667,507.83 392.5,493.163 392,478.5C 390.989,477.663 389.822,477.33 388.5,477.5C 367.46,472.8 351.46,461.133 340.5,442.5C 335.796,433.994 332.796,424.994 331.5,415.5C 331.22,397.139 331.553,378.806 332.5,360.5C 333.79,357.358 334.79,354.025 335.5,350.5C 340.822,337.51 348.822,326.51 359.5,317.5C 370.199,310.314 381.866,305.647 394.5,303.5 Z"/></g>
<g><path style="opacity:1" fill="#2f56ab" d="M 318.5,334.5 C 318.938,334.435 319.272,334.601 319.5,335C 317.697,339.44 316.031,343.94 314.5,348.5C 315.376,349.251 316.376,349.751 317.5,350C 317.167,350.333 316.833,350.667 316.5,351C 319.661,353.544 323.327,354.711 327.5,354.5C 326.629,357.272 326.629,359.938 327.5,362.5C 328.791,362.263 329.791,362.596 330.5,363.5C 330.5,375.833 330.5,388.167 330.5,400.5C 329.883,400.611 329.383,400.944 329,401.5C 326.162,398.745 322.829,396.745 319,395.5C 318.544,394.256 319.044,393.423 320.5,393C 319.624,391.415 318.291,390.415 316.5,390C 317.711,389.213 318.711,388.546 319.5,388C 317.844,385.075 316.011,384.908 314,387.5C 314.148,386.175 313.982,385.008 313.5,384C 314.833,383.667 316.167,383.333 317.5,383C 315.939,382.682 314.772,381.849 314,380.5C 313.667,380.833 313.333,381.167 313,381.5C 312.809,379.292 312.309,377.292 311.5,375.5C 311.817,371.298 311.483,367.298 310.5,363.5C 311.174,353.164 313.84,343.497 318.5,334.5 Z"/></g>
<g><path style="opacity:1" fill="#3054bb" d="M 310.5,363.5 C 311.483,367.298 311.817,371.298 311.5,375.5C 311.333,390.837 311.5,406.17 312,421.5C 312.564,424.155 313.064,426.821 313.5,429.5C 313.48,430.726 313.147,431.726 312.5,432.5C 309.332,409.597 308.665,386.597 310.5,363.5 Z"/></g>
<g><path style="opacity:1" fill="#3789a8" d="M 539.5,363.5 C 551.547,367.91 556.713,376.576 555,389.5C 553.924,395.333 551.091,399.999 546.5,403.5C 546.598,402.451 546.598,401.285 546.5,400C 546.167,399.833 545.833,399.667 545.5,399.5C 544.858,402.797 543.691,403.131 542,400.5C 540.951,401.517 539.784,401.684 538.5,401C 536.792,398.957 534.792,397.29 532.5,396C 536.449,395.193 536.449,394.693 532.5,394.5C 532.657,393.127 532.49,391.793 532,390.5C 528.468,395.868 527.968,395.701 530.5,390C 528.519,389.395 528.185,388.395 529.5,387C 527.35,385.351 525.35,383.518 523.5,381.5C 523.709,380.914 524.043,380.414 524.5,380C 523.167,380.333 521.833,380.667 520.5,381C 521.458,379.853 521.125,378.853 519.5,378C 520.711,376.887 520.711,375.72 519.5,374.5C 524.426,375.05 525.426,373.217 522.5,369C 523.536,367.383 524.703,367.216 526,368.5C 527.214,366.951 528.714,365.785 530.5,365C 529.5,364.667 528.5,364.333 527.5,364C 527.833,363.667 528.167,363.333 528.5,363C 532.188,362.55 535.854,362.717 539.5,363.5 Z"/></g>
<g><path style="opacity:1" fill="#3fac98" d="M 703.5,377.5 C 702.262,377.19 702.262,376.69 703.5,376C 706.146,375.503 708.813,375.336 711.5,375.5C 711.714,373.856 711.38,372.356 710.5,371C 708.294,371.285 706.127,371.452 704,371.5C 703.833,371.167 703.667,370.833 703.5,370.5C 704.376,369.749 705.376,369.249 706.5,369C 705.062,368.781 703.729,368.281 702.5,367.5C 703.587,365.895 702.921,365.229 700.5,365.5C 699.5,365.667 698.5,365.833 697.5,366C 693.24,370.768 688.573,374.934 683.5,378.5C 687.963,373.535 692.63,368.702 697.5,364C 707.184,363.832 716.851,363.332 726.5,362.5C 735.534,345.604 748.534,341.771 765.5,351C 774.888,359.887 777.055,370.387 772,382.5C 764.555,393.428 754.388,397.261 741.5,394C 734.302,390.969 729.302,385.802 726.5,378.5C 718.862,377.503 711.196,377.169 703.5,377.5 Z"/></g>
<g><path style="opacity:1" fill="#151618" d="M 747.5,360.5 C 760.323,361.978 763.323,368.144 756.5,379C 745.044,382.54 739.878,378.374 741,366.5C 742.494,363.686 744.66,361.686 747.5,360.5 Z"/></g>
<g><path style="opacity:1" fill="#3ea698" d="M 628.5,365.5 C 628.389,366.117 628.056,366.617 627.5,367C 629.054,368.748 630.72,368.915 632.5,367.5C 634.373,367.482 634.706,367.982 633.5,369C 634.793,369.49 636.127,369.657 637.5,369.5C 637.182,374.032 637.515,378.366 638.5,382.5C 651.837,382.667 665.171,382.5 678.5,382C 679.789,380.198 681.456,379.031 683.5,378.5C 688.573,374.934 693.24,370.768 697.5,366C 698.5,365.833 699.5,365.667 700.5,365.5C 702.921,365.229 703.587,365.895 702.5,367.5C 703.729,368.281 705.062,368.781 706.5,369C 705.376,369.249 704.376,369.749 703.5,370.5C 703.667,370.833 703.833,371.167 704,371.5C 706.127,371.452 708.294,371.285 710.5,371C 711.38,372.356 711.714,373.856 711.5,375.5C 708.813,375.336 706.146,375.503 703.5,376C 702.262,376.69 702.262,377.19 703.5,377.5C 698.703,382.798 693.703,387.965 688.5,393C 686.35,394.411 684.016,395.245 681.5,395.5C 667.167,395.5 652.833,395.5 638.5,395.5C 638.5,402.167 638.5,408.833 638.5,415.5C 638.296,418.518 637.963,421.518 637.5,424.5C 637.599,415.003 637.266,405.336 636.5,395.5C 636.448,397.57 636.281,399.903 636,402.5C 635.667,401.833 635.333,401.167 635,400.5C 633.951,401.517 632.784,401.684 631.5,401C 632.167,400.667 632.833,400.333 633.5,400C 632.167,399.333 632.167,398.667 633.5,398C 631.954,396.56 631.121,394.727 631,392.5C 628.871,393.863 628.371,393.529 629.5,391.5C 628.91,390.201 627.91,389.368 626.5,389C 627.624,388.751 628.624,388.251 629.5,387.5C 629.167,387.167 628.833,386.833 628.5,386.5C 626.291,387.106 624.124,387.773 622,388.5C 621.544,387.256 622.044,386.423 623.5,386C 621.606,384.921 621.273,383.587 622.5,382C 621.874,381.25 621.374,380.416 621,379.5C 619.807,380.978 619.307,382.312 619.5,383.5C 618.831,381.369 618.165,379.369 617.5,377.5C 617.334,372.821 617.501,368.155 618,363.5C 618.718,364.451 619.551,364.617 620.5,364C 621.211,362.745 622.044,361.579 623,360.5C 624.426,362.766 626.259,364.433 628.5,365.5 Z"/></g>
<g><path style="opacity:1" fill="#326aae" d="M 432.5,401.5 C 431.977,399.292 430.644,397.792 428.5,397C 428.833,396.667 429.167,396.333 429.5,396C 428.258,395.689 427.258,396.189 426.5,397.5C 425.618,396.24 424.618,395.074 423.5,394C 420.166,393.211 416.999,392.044 414,390.5C 412.108,391.13 410.441,392.13 409,393.5C 407.855,391.749 407.355,389.916 407.5,388C 408.308,387.692 408.975,387.192 409.5,386.5C 409.154,385.304 408.654,385.304 408,386.5C 406.505,384.89 406.339,383.224 407.5,381.5C 406.131,379.876 404.464,379.376 402.5,380C 403.634,381.016 403.301,381.683 401.5,382C 405.515,384.107 405.182,384.773 400.5,384C 399.594,382.301 399.261,380.467 399.5,378.5C 405.853,378.547 406.02,377.881 400,376.5C 399.398,373.779 399.565,371.113 400.5,368.5C 404.432,364.041 409.432,362.041 415.5,362.5C 429.747,363.245 437.747,370.745 439.5,385C 439.184,391.475 436.85,396.975 432.5,401.5 Z"/></g>
<g><path style="opacity:1" fill="#376fe1" d="M 332.5,360.5 C 331.553,378.806 331.22,397.139 331.5,415.5C 330.445,412.577 330.112,407.577 330.5,400.5C 330.5,388.167 330.5,375.833 330.5,363.5C 331.001,361.754 331.668,360.754 332.5,360.5 Z"/></g>
<g><path style="opacity:1" fill="#3683aa" d="M 539.5,363.5 C 535.854,362.717 532.188,362.55 528.5,363C 528.167,363.333 527.833,363.667 527.5,364C 528.5,364.333 529.5,364.667 530.5,365C 528.714,365.785 527.214,366.951 526,368.5C 524.703,367.216 523.536,367.383 522.5,369C 525.426,373.217 524.426,375.05 519.5,374.5C 520.711,375.72 520.711,376.887 519.5,378C 521.125,378.853 521.458,379.853 520.5,381C 521.833,380.667 523.167,380.333 524.5,380C 524.043,380.414 523.709,380.914 523.5,381.5C 525.35,383.518 527.35,385.351 529.5,387C 528.185,388.395 528.519,389.395 530.5,390C 527.968,395.701 528.468,395.868 532,390.5C 532.49,391.793 532.657,393.127 532.5,394.5C 536.449,394.693 536.449,395.193 532.5,396C 534.792,397.29 536.792,398.957 538.5,401C 539.784,401.684 540.951,401.517 542,400.5C 543.691,403.131 544.858,402.797 545.5,399.5C 545.833,399.667 546.167,399.833 546.5,400C 546.598,401.285 546.598,402.451 546.5,403.5C 534.907,412.2 524.073,411.2 514,400.5C 504.296,383.276 508.463,370.443 526.5,362C 531.136,361.061 535.469,361.561 539.5,363.5 Z"/></g>
<g><path style="opacity:1" fill="#3163ae" d="M 400.5,368.5 C 399.565,371.113 399.398,373.779 400,376.5C 406.02,377.881 405.853,378.547 399.5,378.5C 399.261,380.467 399.594,382.301 400.5,384C 405.182,384.773 405.515,384.107 401.5,382C 403.301,381.683 403.634,381.016 402.5,380C 404.464,379.376 406.131,379.876 407.5,381.5C 406.339,383.224 406.505,384.89 408,386.5C 408.654,385.304 409.154,385.304 409.5,386.5C 408.975,387.192 408.308,387.692 407.5,388C 407.355,389.916 407.855,391.749 409,393.5C 410.441,392.13 412.108,391.13 414,390.5C 416.999,392.044 420.166,393.211 423.5,394C 424.618,395.074 425.618,396.24 426.5,397.5C 427.258,396.189 428.258,395.689 429.5,396C 429.167,396.333 428.833,396.667 428.5,397C 430.644,397.792 431.977,399.292 432.5,401.5C 421.115,412.153 409.615,412.153 398,401.5C 392.337,393.922 391.003,385.589 394,376.5C 395.274,373.064 397.441,370.397 400.5,368.5 Z"/></g>
<g><path style="opacity:1" fill="#254b48" d="M 681.5,395.5 C 667.677,396.496 653.677,396.829 639.5,396.5C 639.823,403.022 639.49,409.355 638.5,415.5C 638.5,408.833 638.5,402.167 638.5,395.5C 652.833,395.5 667.167,395.5 681.5,395.5 Z"/></g>
<g><path style="opacity:1" fill="#3a9a96" d="M 617.5,377.5 C 618.165,379.369 618.831,381.369 619.5,383.5C 619.307,382.312 619.807,380.978 621,379.5C 621.374,380.416 621.874,381.25 622.5,382C 621.273,383.587 621.606,384.921 623.5,386C 622.044,386.423 621.544,387.256 622,388.5C 624.124,387.773 626.291,387.106 628.5,386.5C 628.833,386.833 629.167,387.167 629.5,387.5C 628.624,388.251 627.624,388.751 626.5,389C 627.91,389.368 628.91,390.201 629.5,391.5C 628.371,393.529 628.871,393.863 631,392.5C 631.121,394.727 631.954,396.56 633.5,398C 632.167,398.667 632.167,399.333 633.5,400C 632.833,400.333 632.167,400.667 631.5,401C 632.784,401.684 633.951,401.517 635,400.5C 635.333,401.167 635.667,401.833 636,402.5C 636.281,399.903 636.448,397.57 636.5,395.5C 637.266,405.336 637.599,415.003 637.5,424.5C 651.344,424.171 665.01,424.504 678.5,425.5C 664.656,425.171 650.99,425.504 637.5,426.5C 634.167,425.833 632.167,427.167 631.5,430.5C 633.029,432.188 634.863,433.521 637,434.5C 637.617,433.551 637.451,432.718 636.5,432C 637.416,431.626 638.25,431.126 639,430.5C 639.14,432.521 639.307,434.355 639.5,436C 636.993,436.093 634.826,436.926 633,438.5C 631.833,441.5 630.667,444.5 629.5,447.5C 629.624,448.107 629.957,448.44 630.5,448.5C 630.068,449.71 629.401,450.71 628.5,451.5C 628.021,449.156 626.521,447.822 624,447.5C 623.055,447.905 622.388,448.572 622,449.5C 620.89,447.963 619.39,447.297 617.5,447.5C 617.5,446.5 617.5,445.5 617.5,444.5C 619.527,444.662 621.527,444.495 623.5,444C 622.207,443.51 620.873,443.343 619.5,443.5C 619.119,438.912 617.953,438.578 616,442.5C 615.696,440.559 614.863,438.893 613.5,437.5C 614.09,436.201 615.09,435.368 616.5,435C 614.885,434.938 613.552,434.771 612.5,434.5C 613.702,429.353 615.035,424.353 616.5,419.5C 617.499,406.246 617.832,392.246 617.5,377.5 Z"/></g>
<g><path style="opacity:1" fill="#2d49a6" d="M 311.5,375.5 C 312.309,377.292 312.809,379.292 313,381.5C 313.333,381.167 313.667,380.833 314,380.5C 314.772,381.849 315.939,382.682 317.5,383C 316.167,383.333 314.833,383.667 313.5,384C 313.982,385.008 314.148,386.175 314,387.5C 316.011,384.908 317.844,385.075 319.5,388C 318.711,388.546 317.711,389.213 316.5,390C 318.291,390.415 319.624,391.415 320.5,393C 319.044,393.423 318.544,394.256 319,395.5C 322.829,396.745 326.162,398.745 329,401.5C 329.383,400.944 329.883,400.611 330.5,400.5C 330.112,407.577 330.445,412.577 331.5,415.5C 332.796,424.994 335.796,433.994 340.5,442.5C 339.535,443.721 339.702,445.054 341,446.5C 343.282,450.718 346.282,454.384 350,457.5C 350.281,459.905 349.615,459.905 348,457.5C 344.943,457.055 341.943,457.721 339,459.5C 337.174,458.99 337.007,458.156 338.5,457C 337.672,456.085 336.672,455.419 335.5,455C 336.851,452.875 336.185,451.708 333.5,451.5C 330.72,453.103 328.054,454.937 325.5,457C 326.451,457.718 326.617,458.551 326,459.5C 323.37,457.019 323.037,454.352 325,451.5C 325.718,452.451 326.551,452.617 327.5,452C 326.257,449.966 324.757,449.133 323,449.5C 321.369,445.879 319.035,442.879 316,440.5C 315.601,440.728 315.435,441.062 315.5,441.5C 314.331,438.659 313.331,435.659 312.5,432.5C 313.147,431.726 313.48,430.726 313.5,429.5C 313.064,426.821 312.564,424.155 312,421.5C 311.5,406.17 311.333,390.837 311.5,375.5 Z"/></g>
<g><path style="opacity:1" fill="#46c9b7" d="M 637.5,426.5 C 650.99,425.504 664.656,425.171 678.5,425.5C 682.167,428.5 685.5,431.833 688.5,435.5C 684.765,433.275 681.432,430.442 678.5,427C 664.837,426.5 651.171,426.333 637.5,426.5 Z"/></g>
<g><path style="opacity:1" fill="#3ca396" d="M 637.5,426.5 C 651.171,426.333 664.837,426.5 678.5,427C 681.432,430.442 684.765,433.275 688.5,435.5C 689.833,436.167 690.833,437.167 691.5,438.5C 701.076,449.58 711.243,460.247 722,470.5C 720.531,472.347 719.031,475.014 717.5,478.5C 716.675,479.386 715.675,479.719 714.5,479.5C 714.737,480.791 714.404,481.791 713.5,482.5C 700.792,467.286 687.125,452.786 672.5,439C 659.833,438.333 647.167,438.333 634.5,439C 633.023,442.12 631.689,445.286 630.5,448.5C 629.957,448.44 629.624,448.107 629.5,447.5C 630.667,444.5 631.833,441.5 633,438.5C 634.826,436.926 636.993,436.093 639.5,436C 639.307,434.355 639.14,432.521 639,430.5C 638.25,431.126 637.416,431.626 636.5,432C 637.451,432.718 637.617,433.551 637,434.5C 634.863,433.521 633.029,432.188 631.5,430.5C 632.167,427.167 634.167,425.833 637.5,426.5 Z"/></g>
<g><path style="opacity:1" fill="#38949a" d="M 612.5,434.5 C 613.552,434.771 614.885,434.938 616.5,435C 615.09,435.368 614.09,436.201 613.5,437.5C 614.863,438.893 615.696,440.559 616,442.5C 617.953,438.578 619.119,438.912 619.5,443.5C 620.873,443.343 622.207,443.51 623.5,444C 621.527,444.495 619.527,444.662 617.5,444.5C 617.5,445.5 617.5,446.5 617.5,447.5C 619.39,447.297 620.89,447.963 622,449.5C 622.388,448.572 623.055,447.905 624,447.5C 626.521,447.822 628.021,449.156 628.5,451.5C 626.227,456.394 623.227,460.727 619.5,464.5C 618.493,464.452 618.16,465.452 618.5,467.5C 623.214,467.173 627.88,467.507 632.5,468.5C 631.471,468.296 630.471,468.796 629.5,470C 630.5,470.333 631.5,470.667 632.5,471C 632.004,472.996 631.004,474.663 629.5,476C 630.167,476.333 630.833,476.667 631.5,477C 623.946,478.432 616.279,478.932 608.5,478.5C 608.703,476.956 609.37,475.622 610.5,474.5C 608.953,474.793 607.286,474.293 605.5,473C 606.109,470.942 607.109,470.109 608.5,470.5C 605.884,468.636 605.05,466.303 606,463.5C 604.488,462.743 603.154,461.743 602,460.5C 601.586,460.957 601.086,461.291 600.5,461.5C 599.833,460.5 599.167,459.5 598.5,458.5C 597.06,459.952 595.394,460.952 593.5,461.5C 601.58,453.654 607.913,444.654 612.5,434.5 Z"/></g>
<g><path style="opacity:1" fill="#3eae96" d="M 691.5,438.5 C 702.298,448.798 712.965,459.298 723.5,470C 729.693,468.654 736.026,468.321 742.5,469C 760.906,476.654 765.739,489.487 757,507.5C 743.648,521.695 729.981,522.028 716,508.5C 711.118,500.188 710.284,491.521 713.5,482.5C 714.404,481.791 714.737,480.791 714.5,479.5C 715.675,479.719 716.675,479.386 717.5,478.5C 719.031,475.014 720.531,472.347 722,470.5C 711.243,460.247 701.076,449.58 691.5,438.5 Z"/></g>
<g><path style="opacity:1" fill="#399b95" d="M 619.5,464.5 C 627.323,465.329 635.323,465.829 643.5,466C 645.5,467 647.5,468 649.5,469C 656.972,477.141 664.472,485.307 672,493.5C 672.168,504.515 672.668,515.515 673.5,526.5C 683.368,531.038 689.035,538.705 690.5,549.5C 688.112,568.381 677.445,576.547 658.5,574C 643.027,567.887 637.527,556.72 642,540.5C 645.421,533.913 650.587,529.247 657.5,526.5C 658.665,517.518 658.832,508.518 658,499.5C 652.351,493.017 646.517,486.683 640.5,480.5C 628.185,479.501 615.851,479.168 603.5,479.5C 604.919,478.549 606.585,478.216 608.5,478.5C 616.279,478.932 623.946,478.432 631.5,477C 630.833,476.667 630.167,476.333 629.5,476C 631.004,474.663 632.004,472.996 632.5,471C 631.5,470.667 630.5,470.333 629.5,470C 630.471,468.796 631.471,468.296 632.5,468.5C 627.88,467.507 623.214,467.173 618.5,467.5C 618.16,465.452 618.493,464.452 619.5,464.5 Z"/></g>
<g><path style="opacity:1" fill="#2f62a5" d="M 462.5,479.5 C 469.2,479.17 475.866,479.503 482.5,480.5C 481.359,481.425 481.359,482.259 482.5,483C 484.676,483.163 486.509,483.996 488,485.5C 488.893,484.289 489.726,484.289 490.5,485.5C 489.271,486.281 487.938,486.781 486.5,487C 487.833,488.333 489.167,489.667 490.5,491C 488.285,492.943 488.285,494.609 490.5,496C 489.922,497.417 488.922,498.25 487.5,498.5C 479.493,498.666 471.493,498.5 463.5,498C 465.583,496.68 465.249,495.346 462.5,494C 463.313,492.686 464.313,491.519 465.5,490.5C 463.958,490.306 462.625,489.139 461.5,487C 463.029,485.209 464.696,483.542 466.5,482C 464.68,481.8 463.347,480.966 462.5,479.5 Z"/></g>
<g><path style="opacity:1" fill="#2c3fa3" d="M 340.5,442.5 C 351.46,461.133 367.46,472.8 388.5,477.5C 387.761,477.369 387.094,477.536 386.5,478C 388.101,478.273 389.601,478.773 391,479.5C 391.159,494.575 391.659,508.909 392.5,522.5C 394.623,524.921 396.956,525.088 399.5,523C 407.068,514.929 415.068,507.429 423.5,500.5C 423.5,501.167 423.5,501.833 423.5,502.5C 417.578,506.751 412.245,511.751 407.5,517.5C 409.315,519.906 411.648,521.573 414.5,522.5C 410.639,523.598 410.639,524.431 414.5,525C 410.763,525.999 410.763,527.332 414.5,529C 413.376,529.249 412.376,529.749 411.5,530.5C 413.506,530.132 415.506,530.632 417.5,532C 414.532,534.178 414.865,535.344 418.5,535.5C 412.584,542.918 405.584,549.084 397.5,554C 384.502,556.758 376.002,551.925 372,539.5C 371.667,524.833 371.333,510.167 371,495.5C 344.411,485.744 325.911,467.744 315.5,441.5C 315.435,441.062 315.601,440.728 316,440.5C 319.035,442.879 321.369,445.879 323,449.5C 324.757,449.133 326.257,449.966 327.5,452C 326.551,452.617 325.718,452.451 325,451.5C 323.037,454.352 323.37,457.019 326,459.5C 326.617,458.551 326.451,457.718 325.5,457C 328.054,454.937 330.72,453.103 333.5,451.5C 336.185,451.708 336.851,452.875 335.5,455C 336.672,455.419 337.672,456.085 338.5,457C 337.007,458.156 337.174,458.99 339,459.5C 341.943,457.721 344.943,457.055 348,457.5C 349.615,459.905 350.281,459.905 350,457.5C 346.282,454.384 343.282,450.718 341,446.5C 339.702,445.054 339.535,443.721 340.5,442.5 Z"/></g>
<g><path style="opacity:1" fill="#358a9d" d="M 608.5,478.5 C 606.585,478.216 604.919,478.549 603.5,479.5C 592.672,489.123 580.006,495.123 565.5,497.5C 568.527,496.374 568.86,494.874 566.5,493C 567.328,492.085 568.328,491.419 569.5,491C 567.998,488.753 565.998,487.086 563.5,486C 564.167,485.667 564.833,485.333 565.5,485C 564.167,484.333 564.167,483.667 565.5,483C 563.113,483.416 561.28,482.249 560,479.5C 558.293,480.138 556.46,480.138 554.5,479.5C 554.158,478.662 553.492,478.328 552.5,478.5C 567.631,476.436 581.298,470.77 593.5,461.5C 595.394,460.952 597.06,459.952 598.5,458.5C 599.167,459.5 599.833,460.5 600.5,461.5C 601.086,461.291 601.586,460.957 602,460.5C 603.154,461.743 604.488,462.743 606,463.5C 605.05,466.303 605.884,468.636 608.5,470.5C 607.109,470.109 606.109,470.942 605.5,473C 607.286,474.293 608.953,474.793 610.5,474.5C 609.37,475.622 608.703,476.956 608.5,478.5 Z"/></g>
<g><path style="opacity:1" fill="#305eab" d="M 446.5,479.5 C 447.209,478.596 448.209,478.263 449.5,478.5C 453.634,479.485 457.968,479.818 462.5,479.5C 463.347,480.966 464.68,481.8 466.5,482C 464.696,483.542 463.029,485.209 461.5,487C 462.625,489.139 463.958,490.306 465.5,490.5C 464.313,491.519 463.313,492.686 462.5,494C 465.249,495.346 465.583,496.68 463.5,498C 471.493,498.5 479.493,498.666 487.5,498.5C 487.5,498.833 487.5,499.167 487.5,499.5C 477.167,499.5 466.833,499.5 456.5,499.5C 455.771,496.341 454.437,493.341 452.5,490.5C 453.167,489.833 453.833,489.167 454.5,488.5C 452.395,487.05 450.395,486.217 448.5,486C 449.622,484.387 449.122,483.22 447,482.5C 447.109,481.231 446.942,480.231 446.5,479.5 Z"/></g>
<g><path style="opacity:1" fill="#161719" d="M 731.5,483.5 C 745.315,482.797 749.315,488.63 743.5,501C 731.15,505.989 725.65,501.822 727,488.5C 728.707,486.963 730.207,485.296 731.5,483.5 Z"/></g>
<g><path style="opacity:1" fill="#327da0" d="M 541.5,479.5 C 545.833,479.5 550.167,479.5 554.5,479.5C 556.46,480.138 558.293,480.138 560,479.5C 561.28,482.249 563.113,483.416 565.5,483C 564.167,483.667 564.167,484.333 565.5,485C 564.833,485.333 564.167,485.667 563.5,486C 565.998,487.086 567.998,488.753 569.5,491C 568.328,491.419 567.328,492.085 566.5,493C 568.86,494.874 568.527,496.374 565.5,497.5C 558.3,500.145 550.967,500.811 543.5,499.5C 543.5,499.167 543.5,498.833 543.5,498.5C 544.278,497.844 544.944,497.011 545.5,496C 544.385,494.765 544.385,493.598 545.5,492.5C 543.027,490.758 543.027,488.925 545.5,487C 542.833,486.333 542.833,485.667 545.5,485C 537.5,484.333 537.5,483.667 545.5,483C 544.167,482.667 542.833,482.333 541.5,482C 542.598,481.23 542.598,480.397 541.5,479.5 Z"/></g>
<g><path style="opacity:1" fill="#2f51a8" d="M 446.5,479.5 C 446.942,480.231 447.109,481.231 447,482.5C 449.122,483.22 449.622,484.387 448.5,486C 450.395,486.217 452.395,487.05 454.5,488.5C 453.833,489.167 453.167,489.833 452.5,490.5C 454.437,493.341 455.771,496.341 456.5,499.5C 452.193,503.472 447.859,507.472 443.5,511.5C 440.944,512.543 438.777,514.21 437,516.5C 435.318,514.446 433.651,514.779 432,517.5C 430.095,516.842 428.595,515.675 427.5,514C 429.891,512.691 429.891,511.691 427.5,511C 429.194,509.272 430.361,509.772 431,512.5C 431.5,512 432,511.5 432.5,511C 431.449,509.615 430.116,508.615 428.5,508C 429.451,507.282 429.617,506.449 429,505.5C 427.293,506.138 425.46,506.138 423.5,505.5C 423.5,504.5 423.5,503.5 423.5,502.5C 423.5,501.833 423.5,501.167 423.5,500.5C 430.262,492.399 437.929,485.399 446.5,479.5 Z"/></g>
<g><path style="opacity:1" fill="#3274ab" d="M 449.5,478.5 C 483.833,478.5 518.167,478.5 552.5,478.5C 553.492,478.328 554.158,478.662 554.5,479.5C 550.167,479.5 545.833,479.5 541.5,479.5C 532.494,479.334 523.494,479.5 514.5,480C 515.833,481 517.167,482 518.5,483C 516.314,483.604 516.148,484.77 518,486.5C 518.333,486.167 518.667,485.833 519,485.5C 519.273,487.101 519.773,488.601 520.5,490C 518.109,490.691 518.109,491.691 520.5,493C 518.314,493.604 518.148,494.77 520,496.5C 520.333,495.833 520.667,495.167 521,494.5C 526.281,496.018 526.448,497.185 521.5,498C 528.826,498.5 536.159,498.666 543.5,498.5C 543.5,498.833 543.5,499.167 543.5,499.5C 524.833,499.5 506.167,499.5 487.5,499.5C 487.5,499.167 487.5,498.833 487.5,498.5C 488.922,498.25 489.922,497.417 490.5,496C 488.285,494.609 488.285,492.943 490.5,491C 489.167,489.667 487.833,488.333 486.5,487C 487.938,486.781 489.271,486.281 490.5,485.5C 489.726,484.289 488.893,484.289 488,485.5C 486.509,483.996 484.676,483.163 482.5,483C 481.359,482.259 481.359,481.425 482.5,480.5C 475.866,479.503 469.2,479.17 462.5,479.5C 457.968,479.818 453.634,479.485 449.5,478.5 Z"/></g>
<g><path style="opacity:1" fill="#3176a1" d="M 541.5,479.5 C 542.598,480.397 542.598,481.23 541.5,482C 542.833,482.333 544.167,482.667 545.5,483C 537.5,483.667 537.5,484.333 545.5,485C 542.833,485.667 542.833,486.333 545.5,487C 543.027,488.925 543.027,490.758 545.5,492.5C 544.385,493.598 544.385,494.765 545.5,496C 544.944,497.011 544.278,497.844 543.5,498.5C 536.159,498.666 528.826,498.5 521.5,498C 526.448,497.185 526.281,496.018 521,494.5C 520.667,495.167 520.333,495.833 520,496.5C 518.148,494.77 518.314,493.604 520.5,493C 518.109,491.691 518.109,490.691 520.5,490C 519.773,488.601 519.273,487.101 519,485.5C 518.667,485.833 518.333,486.167 518,486.5C 516.148,484.77 516.314,483.604 518.5,483C 517.167,482 515.833,481 514.5,480C 523.494,479.5 532.494,479.334 541.5,479.5 Z"/></g>
<g><path style="opacity:1" fill="#334fd3" d="M 388.5,477.5 C 389.822,477.33 390.989,477.663 392,478.5C 392.5,493.163 392.667,507.83 392.5,522.5C 391.659,508.909 391.159,494.575 391,479.5C 389.601,478.773 388.101,478.273 386.5,478C 387.094,477.536 387.761,477.369 388.5,477.5 Z"/></g>
<g><path style="opacity:1" fill="#2e48a6" d="M 423.5,502.5 C 423.5,503.5 423.5,504.5 423.5,505.5C 425.46,506.138 427.293,506.138 429,505.5C 429.617,506.449 429.451,507.282 428.5,508C 430.116,508.615 431.449,509.615 432.5,511C 432,511.5 431.5,512 431,512.5C 430.361,509.772 429.194,509.272 427.5,511C 429.891,511.691 429.891,512.691 427.5,514C 428.595,515.675 430.095,516.842 432,517.5C 433.651,514.779 435.318,514.446 437,516.5C 438.777,514.21 440.944,512.543 443.5,511.5C 435.8,520.201 427.467,528.201 418.5,535.5C 414.865,535.344 414.532,534.178 417.5,532C 415.506,530.632 413.506,530.132 411.5,530.5C 412.376,529.749 413.376,529.249 414.5,529C 410.763,527.332 410.763,525.999 414.5,525C 410.639,524.431 410.639,523.598 414.5,522.5C 411.648,521.573 409.315,519.906 407.5,517.5C 412.245,511.751 417.578,506.751 423.5,502.5 Z"/></g>
<g><path style="opacity:1" fill="#151619" d="M 661.5,540.5 C 674.694,540.393 678.361,546.226 672.5,558C 663.713,562.519 657.713,560.186 654.5,551C 655.074,546.271 657.407,542.771 661.5,540.5 Z"/></g>
<g><path style="opacity:1" fill="#2f47ae" d="M 182.5,658.5 C 178.073,658.633 174.24,660.633 171,664.5C 170.667,664.167 170.333,663.833 170,663.5C 169.691,664.766 169.191,665.933 168.5,667C 166.527,667.495 164.527,667.662 162.5,667.5C 162.33,666.178 162.663,665.011 163.5,664C 162.687,662.115 161.353,661.449 159.5,662C 160.167,663 160.833,664 161.5,665C 158.812,665.392 156.145,665.892 153.5,666.5C 151.884,665.885 150.551,664.885 149.5,663.5C 153.482,658.185 157.816,653.185 162.5,648.5C 169.582,642.3 177.915,638.8 187.5,638C 209.806,634.505 227.806,641.505 241.5,659C 236.869,663.643 231.869,667.81 226.5,671.5C 214.962,656.655 200.296,652.321 182.5,658.5 Z"/></g>
<g><path style="opacity:1" fill="#41b59b" d="M 609.5,641.5 C 616.167,641.5 622.833,641.5 629.5,641.5C 629.5,677.833 629.5,714.167 629.5,750.5C 623.5,750.5 617.5,750.5 611.5,750.5C 611.667,724.498 611.5,698.498 611,672.5C 605.901,681.033 601.068,689.699 596.5,698.5C 596.319,696.971 595.986,695.304 595.5,693.5C 596.247,693.264 597.08,692.93 598,692.5C 598.667,691.833 598.667,691.167 598,690.5C 596.132,691.665 594.298,691.332 592.5,689.5C 591.614,690.325 591.281,691.325 591.5,692.5C 589.856,692.714 588.356,692.38 587,691.5C 586.544,692.744 587.044,693.577 588.5,694C 586.481,694.45 584.648,695.283 583,696.5C 582.667,695.5 582.333,694.5 582,693.5C 580.08,696.339 578.413,699.339 577,702.5C 576.023,703.774 575.189,703.774 574.5,702.5C 585.914,682.004 597.581,661.67 609.5,641.5 Z"/></g>
<g><path style="opacity:1" fill="#49d0a6" d="M 764.5,667.5 C 763.511,662.025 763.178,656.358 763.5,650.5C 758.125,650.172 752.792,650.505 747.5,651.5C 749.04,651.694 750.706,652.527 752.5,654C 750.941,656.642 751.275,658.975 753.5,661C 752.144,663.398 750.977,665.898 750,668.5C 748.365,667.151 746.865,667.318 745.5,669C 741.848,669.499 738.182,669.665 734.5,669.5C 734.5,674.167 734.5,678.833 734.5,683.5C 738.767,683.203 742.934,683.536 747,684.5C 747.828,701.005 747.662,717.339 746.5,733.5C 745.544,717.202 745.211,700.868 745.5,684.5C 741.167,684.5 736.833,684.5 732.5,684.5C 732.5,678.833 732.5,673.167 732.5,667.5C 736.833,667.5 741.167,667.5 745.5,667.5C 745.5,661.167 745.5,654.833 745.5,648.5C 751.833,648.5 758.167,648.5 764.5,648.5C 764.5,654.833 764.5,661.167 764.5,667.5 Z"/></g>
<g><path style="opacity:1" fill="#43bc9d" d="M 703.5,739.5 C 704.477,742.287 704.81,745.287 704.5,748.5C 709.833,748.5 715.167,748.5 720.5,748.5C 720.667,731.83 720.5,715.163 720,698.5C 719.5,712.829 719.333,727.163 719.5,741.5C 716.45,742.077 714.45,740.91 713.5,738C 714.672,737.581 715.672,736.915 716.5,736C 714.567,735.749 712.734,735.249 711,734.5C 709.956,735.623 709.29,736.956 709,738.5C 707.887,737.24 707.72,736.073 708.5,735C 707.234,734.691 706.067,734.191 705,733.5C 703.757,734.336 702.59,734.003 701.5,732.5C 702.262,732.089 703.262,731.923 704.5,732C 703.167,731.333 703.167,730.667 704.5,730C 702.939,729.682 701.772,728.849 701,727.5C 700.292,728.381 699.458,729.047 698.5,729.5C 701.925,724.797 703.258,719.464 702.5,713.5C 693.765,713.124 685.098,713.624 676.5,715C 671.634,716.235 668.3,719.068 666.5,723.5C 665.698,724.952 665.198,726.618 665,728.5C 664.202,725.289 664.702,722.289 666.5,719.5C 664.728,715.202 665.395,714.202 668.5,716.5C 672.063,714.702 675.73,713.202 679.5,712C 678.219,709.053 676.219,706.719 673.5,705C 675.135,704.46 676.468,704.96 677.5,706.5C 678.308,706.192 678.975,705.692 679.5,705C 676.091,704.004 672.758,703.171 669.5,702.5C 680.462,701.568 691.462,701.235 702.5,701.5C 703.511,692.022 699.511,685.856 690.5,683C 683.859,681.594 677.859,682.927 672.5,687C 670.296,690.028 667.962,692.862 665.5,695.5C 660.403,693.814 655.403,691.98 650.5,690C 659.785,669.859 675.451,662.192 697.5,667C 709.773,670.939 717.606,679.106 721,691.5C 721.5,711.164 721.667,730.831 721.5,750.5C 715.5,750.5 709.5,750.5 703.5,750.5C 703.5,746.833 703.5,743.167 703.5,739.5 Z"/></g>
<g><path style="opacity:1" fill="#2f4faf" d="M 283.5,695.5 C 283.565,695.062 283.399,694.728 283,694.5C 281.271,696.931 279.771,696.597 278.5,693.5C 278.709,692.914 279.043,692.414 279.5,692C 274.167,691.333 274.167,690.667 279.5,690C 278.5,689.667 277.5,689.333 276.5,689C 277.641,688.259 277.641,687.425 276.5,686.5C 273.07,685.619 269.737,684.452 266.5,683C 267.833,682.667 269.167,682.333 270.5,682C 268.408,681.047 268.075,679.714 269.5,678C 264.66,677.171 264.327,675.504 268.5,673C 267.383,671.108 265.716,670.275 263.5,670.5C 263.672,669.508 263.338,668.842 262.5,668.5C 268.645,667.51 274.978,667.177 281.5,667.5C 281.174,671.884 281.508,676.217 282.5,680.5C 288.828,670.003 298.161,665.336 310.5,666.5C 310.5,672.5 310.5,678.5 310.5,684.5C 299.185,683.005 290.185,686.671 283.5,695.5 Z"/></g>
<g><path style="opacity:1" fill="#315fb0" d="M 352.5,667.5 C 364.88,664.709 376.213,667.043 386.5,674.5C 383.297,673.317 380.13,671.984 377,670.5C 375.414,672.044 373.58,673.211 371.5,674C 375.15,673.836 375.983,675.003 374,677.5C 371.952,675.213 369.785,675.046 367.5,677C 369.134,677.494 370.801,677.66 372.5,677.5C 372.5,678.833 372.5,680.167 372.5,681.5C 375.598,681.413 375.932,681.913 373.5,683C 378.814,687.793 382.48,693.626 384.5,700.5C 379.539,688.515 370.539,682.848 357.5,683.5C 354.653,682.29 351.819,682.623 349,684.5C 348.676,682.431 347.842,682.098 346.5,683.5C 345.833,682.833 345.167,682.167 344.5,681.5C 344.089,682.262 343.923,683.262 344,684.5C 343.282,685.451 342.449,685.617 341.5,685C 342.316,683.077 342.983,681.077 343.5,679C 341.579,677.195 340.912,675.195 341.5,673C 343.269,671.981 344.936,671.814 346.5,672.5C 349.028,671.502 349.028,670.669 346.5,670C 349.233,669.224 351.233,668.39 352.5,667.5 Z"/></g>
<g><path style="opacity:1" fill="#3785ab" d="M 448.5,666.5 C 459.863,665.411 469.529,668.744 477.5,676.5C 476.986,677.625 476.653,678.791 476.5,680C 474.82,680.034 473.32,680.201 472,680.5C 471.493,681.996 471.993,683.163 473.5,684C 472.915,685.302 472.249,686.469 471.5,687.5C 465.337,684.082 458.67,682.749 451.5,683.5C 451.513,682.534 452.513,681.868 454.5,681.5C 455.777,678.966 455.777,676.466 454.5,674C 455.167,673.667 455.833,673.333 456.5,673C 455.359,672.259 455.359,671.425 456.5,670.5C 458.078,669.702 459.744,669.202 461.5,669C 456.985,668.386 452.652,667.552 448.5,666.5 Z"/></g>
<g><path style="opacity:1" fill="#2f56ae" d="M 352.5,667.5 C 351.233,668.39 349.233,669.224 346.5,670C 349.028,670.669 349.028,671.502 346.5,672.5C 344.936,671.814 343.269,671.981 341.5,673C 340.912,675.195 341.579,677.195 343.5,679C 342.983,681.077 342.316,683.077 341.5,685C 342.449,685.617 343.282,685.451 344,684.5C 343.923,683.262 344.089,682.262 344.5,681.5C 345.167,682.167 345.833,682.833 346.5,683.5C 347.842,682.098 348.676,682.431 349,684.5C 351.819,682.623 354.653,682.29 357.5,683.5C 346.817,685.011 339.984,691.011 337,701.5C 334.267,724.596 344.433,735.596 367.5,734.5C 365.769,736.057 363.103,736.89 359.5,737C 358.833,737.667 358.167,738.333 357.5,739C 359.706,741.209 360.04,743.709 358.5,746.5C 360,747.5 361.5,748.5 363,749.5C 363.772,749.355 364.439,749.022 365,748.5C 367.607,749.123 370.107,749.79 372.5,750.5C 336.152,754.979 317.652,738.979 317,702.5C 320.789,682.544 332.622,670.877 352.5,667.5 Z"/></g>
<g><path style="opacity:1" fill="#0a0001" d="M 519.5,639.5 C 519.5,674.167 519.5,708.833 519.5,743.5C 519.5,745.833 519.5,748.167 519.5,750.5C 525.5,750.5 531.5,750.5 537.5,750.5C 537.833,750.5 538.167,750.5 538.5,750.5C 539.167,724.833 539.833,699.167 540.5,673.5C 542.438,677.043 544.105,680.71 545.5,684.5C 543.526,682.572 542.026,680.239 541,677.5C 540.5,702.164 540.333,726.831 540.5,751.5C 533.167,751.5 525.833,751.5 518.5,751.5C 518.168,713.996 518.502,676.663 519.5,639.5 Z"/></g>
<g><path style="opacity:1" fill="#16171a" d="M 357.5,683.5 C 370.539,682.848 379.539,688.515 384.5,700.5C 384.5,704.5 384.5,708.5 384.5,712.5C 383.609,723.652 377.942,730.986 367.5,734.5C 344.433,735.596 334.267,724.596 337,701.5C 339.984,691.011 346.817,685.011 357.5,683.5 Z"/></g>
<g><path style="opacity:1" fill="#16171b" d="M 451.5,683.5 C 458.67,682.749 465.337,684.082 471.5,687.5C 480.878,700.457 481.878,714.123 474.5,728.5C 464.84,736.663 454.507,737.496 443.5,731C 435.029,721.658 432.529,710.824 436,698.5C 439.106,691.225 444.272,686.225 451.5,683.5 Z"/></g>
<g><path style="opacity:1" fill="#3477aa" d="M 448.5,666.5 C 452.652,667.552 456.985,668.386 461.5,669C 459.744,669.202 458.078,669.702 456.5,670.5C 455.359,671.425 455.359,672.259 456.5,673C 455.833,673.333 455.167,673.667 454.5,674C 455.777,676.466 455.777,678.966 454.5,681.5C 452.513,681.868 451.513,682.534 451.5,683.5C 444.272,686.225 439.106,691.225 436,698.5C 432.529,710.824 435.029,721.658 443.5,731C 454.507,737.496 464.84,736.663 474.5,728.5C 474.084,730.752 472.751,732.252 470.5,733C 473.545,735.628 475.878,738.128 477.5,740.5C 468.558,751.056 457.225,754.556 443.5,751C 429.693,746.526 420.526,737.359 416,723.5C 412.21,707.566 414.877,692.9 424,679.5C 430.552,672.141 438.718,667.807 448.5,666.5 Z"/></g>
<g><path style="opacity:1" fill="#40ac9e" d="M 519.5,639.5 C 526.863,639.169 534.197,639.503 541.5,640.5C 553.034,660.903 564.034,681.57 574.5,702.5C 575.189,703.774 576.023,703.774 577,702.5C 578.413,699.339 580.08,696.339 582,693.5C 582.333,694.5 582.667,695.5 583,696.5C 584.648,695.283 586.481,694.45 588.5,694C 587.044,693.577 586.544,692.744 587,691.5C 588.356,692.38 589.856,692.714 591.5,692.5C 591.281,691.325 591.614,690.325 592.5,689.5C 594.298,691.332 596.132,691.665 598,690.5C 598.667,691.167 598.667,691.833 598,692.5C 597.08,692.93 596.247,693.264 595.5,693.5C 595.986,695.304 596.319,696.971 596.5,698.5C 591.766,707.634 586.766,716.634 581.5,725.5C 577.167,726.833 572.833,726.833 568.5,725.5C 561.059,711.609 553.392,697.943 545.5,684.5C 544.105,680.71 542.438,677.043 540.5,673.5C 540.44,672.957 540.107,672.624 539.5,672.5C 538.5,698.491 538.167,724.491 538.5,750.5C 538.167,750.5 537.833,750.5 537.5,750.5C 537.5,726.833 537.5,703.167 537.5,679.5C 537.187,676.753 537.52,674.086 538.5,671.5C 540.657,670.034 540.99,668.2 539.5,666C 540.448,665.517 541.448,665.351 542.5,665.5C 542.351,666.552 542.517,667.552 543,668.5C 543.494,666.866 543.66,665.199 543.5,663.5C 541.801,663.66 540.134,663.494 538.5,663C 539.5,662.667 540.5,662.333 541.5,662C 535.72,657.952 529.72,655.952 523.5,656C 527.422,657.953 527.088,659.119 522.5,659.5C 520.768,659.722 520.435,667.722 521.5,683.5C 521.667,701.836 521.5,720.17 521,738.5C 520.802,740.382 520.302,742.048 519.5,743.5C 519.5,708.833 519.5,674.167 519.5,639.5 Z"/></g>
<g><path style="opacity:1" fill="#3ea39c" d="M 537.5,679.5 C 536.833,685.346 536.167,691.346 535.5,697.5C 532.539,696.817 532.205,695.984 534.5,695C 532.307,693.936 530.307,692.602 528.5,691C 530.301,690.683 530.634,690.016 529.5,689C 527.559,688.257 525.726,688.424 524,689.5C 523.735,687.264 522.902,685.264 521.5,683.5C 520.435,667.722 520.768,659.722 522.5,659.5C 527.088,659.119 527.422,657.953 523.5,656C 529.72,655.952 535.72,657.952 541.5,662C 540.5,662.333 539.5,662.667 538.5,663C 540.134,663.494 541.801,663.66 543.5,663.5C 543.66,665.199 543.494,666.866 543,668.5C 542.517,667.552 542.351,666.552 542.5,665.5C 541.448,665.351 540.448,665.517 539.5,666C 540.99,668.2 540.657,670.034 538.5,671.5C 537.52,674.086 537.187,676.753 537.5,679.5 Z"/></g>
<g><path style="opacity:1" fill="#3550d7" d="M 246.5,707.5 C 245.512,702.36 245.179,697.026 245.5,691.5C 229.5,691.5 213.5,691.5 197.5,691.5C 197.5,696.167 197.5,700.833 197.5,705.5C 206.349,705.174 215.016,705.507 223.5,706.5C 214.5,706.5 205.5,706.5 196.5,706.5C 196.5,701.167 196.5,695.833 196.5,690.5C 213.167,690.5 229.833,690.5 246.5,690.5C 246.5,696.167 246.5,701.833 246.5,707.5 Z"/></g>
<g><path style="opacity:1" fill="#388ea4" d="M 483.5,667.5 C 488.5,667.5 493.5,667.5 498.5,667.5C 498.5,705.167 498.5,742.833 498.5,780.5C 498.167,780.5 497.833,780.5 497.5,780.5C 496.775,768.52 496.275,756.52 496,744.5C 493.961,743.022 493.128,741.022 493.5,738.5C 487.437,739.322 485.437,736.989 487.5,731.5C 495.296,731.595 495.296,730.762 487.5,729C 484.707,726.266 485.041,725.266 488.5,726C 487.05,722.899 488.05,720.899 491.5,720C 490.167,719.667 488.833,719.333 487.5,719C 487.006,716.918 485.673,714.918 483.5,713C 487.816,712.055 488.482,710.055 485.5,707C 486.833,706.667 488.167,706.333 489.5,706C 487.616,705.784 485.949,705.117 484.5,704C 485.624,703.751 486.624,703.251 487.5,702.5C 487.119,700.259 486.952,697.926 487,695.5C 485.933,697.283 484.433,697.783 482.5,697C 484.842,695.272 487.175,693.605 489.5,692C 486.997,690.451 486.997,688.784 489.5,687C 487.731,684.731 487.065,682.398 487.5,680C 486.692,679.692 486.025,679.192 485.5,678.5C 488.953,677.521 489.286,676.021 486.5,674C 487.167,673.333 487.833,672.667 488.5,672C 486.974,670.113 484.974,669.113 482.5,669C 483.056,668.617 483.389,668.117 483.5,667.5 Z"/></g>
<g><path style="opacity:1" fill="#358381" d="M 540.5,673.5 C 539.833,699.167 539.167,724.833 538.5,750.5C 538.167,724.491 538.5,698.491 539.5,672.5C 540.107,672.624 540.44,672.957 540.5,673.5 Z"/></g>
<g><path style="opacity:1" fill="#2d45a8" d="M 263.5,670.5 C 265.716,670.275 267.383,671.108 268.5,673C 264.327,675.504 264.66,677.171 269.5,678C 268.075,679.714 268.408,681.047 270.5,682C 269.167,682.333 267.833,682.667 266.5,683C 269.737,684.452 273.07,685.619 276.5,686.5C 277.641,687.425 277.641,688.259 276.5,689C 277.5,689.333 278.5,689.667 279.5,690C 274.167,690.667 274.167,691.333 279.5,692C 279.043,692.414 278.709,692.914 278.5,693.5C 279.771,696.597 281.271,696.931 283,694.5C 283.399,694.728 283.565,695.062 283.5,695.5C 283.198,698.373 282.531,701.039 281.5,703.5C 280.66,718.092 280.16,733.425 280,749.5C 274.593,748.527 269.093,748.193 263.5,748.5C 263.5,722.5 263.5,696.5 263.5,670.5 Z"/></g>
<g><path style="opacity:1" fill="#43bc99" d="M 764.5,667.5 C 771.167,667.5 777.833,667.5 784.5,667.5C 784.5,673.167 784.5,678.833 784.5,684.5C 777.833,684.5 771.167,684.5 764.5,684.5C 764.333,697.837 764.5,711.171 765,724.5C 765.923,728.914 768.423,731.914 772.5,733.5C 776.634,734.485 780.968,734.818 785.5,734.5C 785.5,739.833 785.5,745.167 785.5,750.5C 776.781,750.797 768.114,750.297 759.5,749C 752.715,745.951 748.381,740.784 746.5,733.5C 747.662,717.339 747.828,701.005 747,684.5C 742.934,683.536 738.767,683.203 734.5,683.5C 734.5,678.833 734.5,674.167 734.5,669.5C 738.182,669.665 741.848,669.499 745.5,669C 746.865,667.318 748.365,667.151 750,668.5C 750.977,665.898 752.144,663.398 753.5,661C 751.275,658.975 750.941,656.642 752.5,654C 750.706,652.527 749.04,651.694 747.5,651.5C 752.792,650.505 758.125,650.172 763.5,650.5C 763.178,656.358 763.511,662.025 764.5,667.5 Z"/></g>
<g><path style="opacity:1" fill="#2d41a8" d="M 246.5,707.5 C 245.533,717.421 241.866,726.088 235.5,733.5C 234.448,733.649 233.448,733.483 232.5,733C 230.825,731.291 229.158,729.624 227.5,728C 228.167,727.667 228.833,727.333 229.5,727C 228.61,724.419 226.943,723.086 224.5,723C 225.711,723.893 225.711,724.726 224.5,725.5C 222.374,724.091 222.04,722.424 223.5,720.5C 225.067,716.065 226.4,711.565 227.5,707C 226.207,706.51 224.873,706.343 223.5,706.5C 215.016,705.507 206.349,705.174 197.5,705.5C 197.5,700.833 197.5,696.167 197.5,691.5C 213.5,691.5 229.5,691.5 245.5,691.5C 245.179,697.026 245.512,702.36 246.5,707.5 Z"/></g>
<g><path style="opacity:1" fill="#3165aa" d="M 386.5,674.5 C 396.032,680.557 401.865,689.223 404,700.5C 406.502,717.213 401.669,731.213 389.5,742.5C 389.769,740.571 389.269,738.905 388,737.5C 386.605,738.815 385.605,738.481 385,736.5C 384.667,736.833 384.333,737.167 384,737.5C 382.167,736.333 380.333,735.167 378.5,734C 379.167,733.667 379.833,733.333 380.5,733C 381.083,731.381 381.083,729.548 380.5,727.5C 385.182,721.259 387.016,714.259 386,706.5C 385.809,708.708 385.309,710.708 384.5,712.5C 384.5,708.5 384.5,704.5 384.5,700.5C 382.48,693.626 378.814,687.793 373.5,683C 375.932,681.913 375.598,681.413 372.5,681.5C 372.5,680.167 372.5,678.833 372.5,677.5C 370.801,677.66 369.134,677.494 367.5,677C 369.785,675.046 371.952,675.213 374,677.5C 375.983,675.003 375.15,673.836 371.5,674C 373.58,673.211 375.414,672.044 377,670.5C 380.13,671.984 383.297,673.317 386.5,674.5 Z"/></g>
<g><path style="opacity:1" fill="#4addbe" d="M 629.5,750.5 C 629.5,714.167 629.5,677.833 629.5,641.5C 622.833,641.5 616.167,641.5 609.5,641.5C 616.087,639.539 623.087,638.872 630.5,639.5C 630.832,676.67 630.498,713.67 629.5,750.5 Z"/></g>
<g><path style="opacity:1" fill="#41ba97" d="M 826.5,666.5 C 848.944,663.798 864.444,672.798 873,693.5C 874.186,700.786 874.686,708.119 874.5,715.5C 854.167,715.5 833.833,715.5 813.5,715.5C 819.076,735.286 831.409,741.119 850.5,733C 853.35,730.318 856.016,727.484 858.5,724.5C 862.994,727.914 867.66,731.081 872.5,734C 858.439,751.125 840.773,756.125 819.5,749C 796.305,736.094 788.805,716.927 797,691.5C 802.508,677.86 812.342,669.526 826.5,666.5 Z"/></g>
<g><path style="opacity:1" fill="#50f2c3" d="M 813.5,699.5 C 813.5,700.5 813.5,701.5 813.5,702.5C 827.5,702.5 841.5,702.5 855.5,702.5C 841.343,703.496 827.01,703.829 812.5,703.5C 812.232,701.901 812.566,700.568 813.5,699.5 Z"/></g>
<g><path style="opacity:1" fill="#1f362d" d="M 813.5,699.5 C 813.833,699.5 814.167,699.5 814.5,699.5C 820.966,700.83 827.799,701.497 835,701.5C 842.008,701.5 848.842,701.166 855.5,700.5C 856.833,701.167 856.833,701.833 855.5,702.5C 841.5,702.5 827.5,702.5 813.5,702.5C 813.5,701.5 813.5,700.5 813.5,699.5 Z"/></g>
<g><path style="opacity:1" fill="#16171a" d="M 855.5,700.5 C 848.842,701.166 842.008,701.5 835,701.5C 827.799,701.497 820.966,700.83 814.5,699.5C 817.122,688.712 823.955,682.712 835,681.5C 847.154,682.155 853.987,688.489 855.5,700.5 Z"/></g>
<g><path style="opacity:1" fill="#3b9c9a" d="M 537.5,679.5 C 537.5,703.167 537.5,726.833 537.5,750.5C 531.5,750.5 525.5,750.5 519.5,750.5C 519.5,748.167 519.5,745.833 519.5,743.5C 520.302,742.048 520.802,740.382 521,738.5C 521.5,720.17 521.667,701.836 521.5,683.5C 522.902,685.264 523.735,687.264 524,689.5C 525.726,688.424 527.559,688.257 529.5,689C 530.634,690.016 530.301,690.683 528.5,691C 530.307,692.602 532.307,693.936 534.5,695C 532.205,695.984 532.539,696.817 535.5,697.5C 536.167,691.346 536.833,685.346 537.5,679.5 Z"/></g>
<g><path style="opacity:1" fill="#41b69b" d="M 703.5,739.5 C 691.684,751.712 677.684,754.879 661.5,749C 649.122,741.882 644.955,731.382 649,717.5C 653.184,708.808 660.017,703.808 669.5,702.5C 672.758,703.171 676.091,704.004 679.5,705C 678.975,705.692 678.308,706.192 677.5,706.5C 676.468,704.96 675.135,704.46 673.5,705C 676.219,706.719 678.219,709.053 679.5,712C 675.73,713.202 672.063,714.702 668.5,716.5C 665.395,714.202 664.728,715.202 666.5,719.5C 664.702,722.289 664.202,725.289 665,728.5C 665.198,726.618 665.698,724.952 666.5,723.5C 665.282,730.244 667.949,734.411 674.5,736C 683.398,736.943 691.398,734.776 698.5,729.5C 699.458,729.047 700.292,728.381 701,727.5C 701.772,728.849 702.939,729.682 704.5,730C 703.167,730.667 703.167,731.333 704.5,732C 703.262,731.923 702.262,732.089 701.5,732.5C 702.59,734.003 703.757,734.336 705,733.5C 706.067,734.191 707.234,734.691 708.5,735C 707.72,736.073 707.887,737.24 709,738.5C 709.29,736.956 709.956,735.623 711,734.5C 712.734,735.249 714.567,735.749 716.5,736C 715.672,736.915 714.672,737.581 713.5,738C 714.45,740.91 716.45,742.077 719.5,741.5C 719.333,727.163 719.5,712.829 720,698.5C 720.5,715.163 720.667,731.83 720.5,748.5C 715.167,748.5 709.833,748.5 704.5,748.5C 704.81,745.287 704.477,742.287 703.5,739.5 Z"/></g>
<g><path style="opacity:1" fill="#16171a" d="M 698.5,729.5 C 691.398,734.776 683.398,736.943 674.5,736C 667.949,734.411 665.282,730.244 666.5,723.5C 668.3,719.068 671.634,716.235 676.5,715C 685.098,713.624 693.765,713.124 702.5,713.5C 703.258,719.464 701.925,724.797 698.5,729.5 Z"/></g>
<g><path style="opacity:1" fill="#2d3da8" d="M 162.5,648.5 C 157.816,653.185 153.482,658.185 149.5,663.5C 150.551,664.885 151.884,665.885 153.5,666.5C 156.145,665.892 158.812,665.392 161.5,665C 160.833,664 160.167,663 159.5,662C 161.353,661.449 162.687,662.115 163.5,664C 162.663,665.011 162.33,666.178 162.5,667.5C 164.527,667.662 166.527,667.495 168.5,667C 169.191,665.933 169.691,664.766 170,663.5C 170.333,663.833 170.667,664.167 171,664.5C 174.24,660.633 178.073,658.633 182.5,658.5C 164.876,667.812 157.376,682.478 160,702.5C 167.534,730.187 185.034,739.354 212.5,730C 216.652,727.278 220.319,724.112 223.5,720.5C 222.04,722.424 222.374,724.091 224.5,725.5C 225.711,724.726 225.711,723.893 224.5,723C 226.943,723.086 228.61,724.419 229.5,727C 228.833,727.333 228.167,727.667 227.5,728C 229.158,729.624 230.825,731.291 232.5,733C 233.448,733.483 234.448,733.649 235.5,733.5C 231.648,739.615 226.315,744.115 219.5,747C 193.625,757.025 171.125,752.191 152,732.5C 134.657,708.065 134.324,683.398 151,658.5C 154.429,654.561 158.263,651.228 162.5,648.5 Z"/></g>
<g><path style="opacity:1" fill="#3687a1" d="M 483.5,667.5 C 483.389,668.117 483.056,668.617 482.5,669C 484.974,669.113 486.974,670.113 488.5,672C 487.833,672.667 487.167,673.333 486.5,674C 489.286,676.021 488.953,677.521 485.5,678.5C 486.025,679.192 486.692,679.692 487.5,680C 487.065,682.398 487.731,684.731 489.5,687C 486.997,688.784 486.997,690.451 489.5,692C 487.175,693.605 484.842,695.272 482.5,697C 484.433,697.783 485.933,697.283 487,695.5C 486.952,697.926 487.119,700.259 487.5,702.5C 486.624,703.251 485.624,703.751 484.5,704C 485.949,705.117 487.616,705.784 489.5,706C 488.167,706.333 486.833,706.667 485.5,707C 488.482,710.055 487.816,712.055 483.5,713C 485.673,714.918 487.006,716.918 487.5,719C 488.833,719.333 490.167,719.667 491.5,720C 488.05,720.899 487.05,722.899 488.5,726C 485.041,725.266 484.707,726.266 487.5,729C 495.296,730.762 495.296,731.595 487.5,731.5C 485.437,736.989 487.437,739.322 493.5,738.5C 493.128,741.022 493.961,743.022 496,744.5C 496.275,756.52 496.775,768.52 497.5,780.5C 491.833,780.5 486.167,780.5 480.5,780.5C 480.829,766.99 480.496,753.656 479.5,740.5C 479.062,739.494 478.396,739.494 477.5,740.5C 475.878,738.128 473.545,735.628 470.5,733C 472.751,732.252 474.084,730.752 474.5,728.5C 481.878,714.123 480.878,700.457 471.5,687.5C 472.249,686.469 472.915,685.302 473.5,684C 471.993,683.163 471.493,681.996 472,680.5C 473.32,680.201 474.82,680.034 476.5,680C 476.653,678.791 476.986,677.625 477.5,676.5C 477.783,677.289 478.283,677.956 479,678.5C 479.499,674.848 479.665,671.182 479.5,667.5C 480.833,667.5 482.167,667.5 483.5,667.5 Z"/></g>
<g><path style="opacity:1" fill="#305fab" d="M 389.5,742.5 C 384.504,746.497 378.837,749.164 372.5,750.5C 370.107,749.79 367.607,749.123 365,748.5C 364.439,749.022 363.772,749.355 363,749.5C 361.5,748.5 360,747.5 358.5,746.5C 360.04,743.709 359.706,741.209 357.5,739C 358.167,738.333 358.833,737.667 359.5,737C 363.103,736.89 365.769,736.057 367.5,734.5C 377.942,730.986 383.609,723.652 384.5,712.5C 385.309,710.708 385.809,708.708 386,706.5C 387.016,714.259 385.182,721.259 380.5,727.5C 381.083,729.548 381.083,731.381 380.5,733C 379.833,733.333 379.167,733.667 378.5,734C 380.333,735.167 382.167,736.333 384,737.5C 384.333,737.167 384.667,736.833 385,736.5C 385.605,738.481 386.605,738.815 388,737.5C 389.269,738.905 389.769,740.571 389.5,742.5 Z"/></g>
<g><path style="opacity:1" fill="#50f1c3" d="M 772.5,733.5 C 777.167,733.5 781.833,733.5 786.5,733.5C 786.822,739.358 786.489,745.025 785.5,750.5C 785.5,745.167 785.5,739.833 785.5,734.5C 780.968,734.818 776.634,734.485 772.5,733.5 Z"/></g>
<g><path style="opacity:1" fill="#304bc9" d="M 262.5,668.5 C 263.338,668.842 263.672,669.508 263.5,670.5C 263.5,696.5 263.5,722.5 263.5,748.5C 269.093,748.193 274.593,748.527 280,749.5C 280.16,733.425 280.66,718.092 281.5,703.5C 281.5,719.167 281.5,734.833 281.5,750.5C 275.167,750.5 268.833,750.5 262.5,750.5C 262.5,723.167 262.5,695.833 262.5,668.5 Z"/></g>
<g><path style="opacity:1" fill="#41a9d4" d="M 479.5,740.5 C 480.496,753.656 480.829,766.99 480.5,780.5C 486.167,780.5 491.833,780.5 497.5,780.5C 497.833,780.5 498.167,780.5 498.5,780.5C 492.355,781.49 486.022,781.823 479.5,781.5C 479.5,767.833 479.5,754.167 479.5,740.5 Z"/></g>
</svg>
